<svg xmlns="http://www.w3.org/2000/svg"
shape-rendering="geometricPrecision"
width="4000" height="4000" viewBox="0 0 1024 1024">
  <metadata>null</metadata>

<path d="
M 277.637 497.975
C 277.98 485.612 281.487 473.509 283.868 461.463
C 285.574 455.396 287.423 449.413 289.38 443.432
C 291.835 437.683 293.803 431.651 296.216 425.861
C 296.757 424.566 297.411 423.27 297.834 421.934
C 300.36 417.934 302.156 413.134 304.307 408.902
C 307.28 403.845 309.617 397.761 313.516 393.322
C 321.071 399.921 329.173 406.099 337.004 412.384
C 341.909 416.32 346.627 421.214 351.925 424.574
C 352.252 424.944 352.58 425.222 352.979 425.511
C 355.009 427.574 357.629 429.31 359.876 431.164
C 362.838 433.609 365.769 436.383 368.909 438.576
C 370.274 439.749 371.767 441.315 373.38 442.107
C 374.753 443.695 376.691 444.905 378.321 446.219
C 381.283 448.607 384.127 451.179 387.17 453.458
C 387.621 453.795 388.029 454.178 388.482 454.513
C 389.136 455.188 389.908 455.901 390.671 456.44
C 392.625 453.706 394.226 450.665 396.156 447.887
C 397.397 446.102 399.043 444.596 400.205 442.765
C 401.47 440.779 403.307 439.179 404.754 437.325
C 408.509 433.157 412.534 429.401 416.4 425.374
C 418.191 423.84 420.042 422.356 421.798 420.785
C 429.137 415.575 436.133 410.431 444.146 406.236
C 447.155 404.661 450.258 403.2 453.406 401.926
C 454.937 401.307 457.109 400.841 458.421 399.869
C 464.839 398.335 470.999 395.849 477.509 394.476
C 485.077 392.88 492.818 392.561 500.495 391.902
C 502.994 391.852 505.497 391.81 507.996 391.84
C 515.577 392.343 522.95 393.794 530.468 394.633
C 533.626 395.732 537.322 396.382 540.593 397.161
C 545.274 398.19 549.526 400.416 554.038 401.911
C 563.342 405.874 572.222 411.013 580.458 416.878
C 583.77 419.238 586.654 422.244 589.97 424.544
C 590.829 425.525 591.916 426.297 592.897 427.151
C 594.73 429.484 597.253 431.42 599.276 433.61
C 601.957 436.512 604.231 439.726 606.833 442.672
C 607.16 443.163 607.484 443.641 607.886 444.073
C 610.113 447.473 612.599 450.673 614.699 454.166
C 616.125 456.536 617.17 459.423 618.827 461.608
C 620.797 466.829 623.764 471.662 625.545 476.995
C 625.702 477.493 625.872 477.987 626.023 478.487
C 628.091 484.125 629.762 490.097 630.897 495.995
C 631.08 498.404 631.796 500.85 632.129 503.258
C 632.6 506.676 632.751 510.116 633.206 513.53
C 633.823 519.484 633.056 525.558 632.844 531.508
C 632.701 534.266 632.193 537.024 631.843 539.761
C 631.636 541.378 631.687 543.598 630.974 545.06
C 624.444 540.794 619.27 534.425 612.652 530.312
C 611.422 528.887 609.349 527.161 607.676 526.274
C 606.725 525.177 605.393 524.529 604.371 523.527
C 603.789 520.338 604.448 516.772 604.16 513.519
C 603.843 507.8 603.377 501.452 601.501 496.009
C 600.091 490.122 597.954 484.515 595.445 479.018
C 594.566 475.95 592.406 472.04 590.479 469.497
C 588.998 466.881 587.27 463.531 585.069 461.459
C 582.801 457.627 579.34 454.325 576.156 451.256
C 574.319 449.486 572.557 447.504 570.508 445.978
C 568.941 444.887 567.651 443.457 566.091 442.344
C 562.665 439.195 558.173 436.564 554.098 434.354
C 550.38 431.621 545.326 429.611 541.024 427.97
C 525.785 422.163 510.482 419.963 494.227 421.219
C 488.214 421.684 481.556 422.467 475.914 424.706
C 473.163 425.123 470.316 426.447 467.734 427.46
C 464.373 428.779 460.272 429.994 457.336 432.133
C 451.576 434.843 446.599 438.774 441.362 442.311
C 440.982 442.601 440.626 442.888 440.284 443.222
C 435.07 446.702 429.886 452.156 426.031 457.079
C 424.804 458.647 422.743 460.271 422.154 462.213
C 420.814 463.165 419.857 465.24 419.003 466.626
C 416.643 470.458 413.133 474.895 412.099 479.336
C 411.172 480.502 410.759 482.204 410.145 483.556
C 408.333 487.548 406.634 492.106 405.813 496.422
C 404.645 502.496 403.023 508.241 402.734 514.48
C 402.163 520.514 402.06 526.465 402.677 532.486
C 402.787 538.726 404.711 544.49 405.961 550.523
C 407.276 554.86 408.848 559.064 410.658 563.217
C 411.444 565.02 412.106 567.046 413.246 568.661
C 415.531 573.771 418.994 580.02 422.878 584.081
C 423.167 584.478 423.46 584.802 423.822 585.133
C 425.706 588.474 429.164 591.475 431.837 594.199
C 438.036 600.518 444.808 606.004 452.519 610.393
C 454.653 611.607 456.748 613.054 459.03 613.975
C 475.374 621.223 493.037 625.154 510.995 623.445
C 520.546 622.667 531.243 621.053 539.939 616.809
C 544.636 615.014 548.903 612.586 553.302 610.198
C 557.369 608.296 562.18 605.014 565.361 601.845
C 569.948 598.757 573.905 594.446 577.572 590.358
C 579.321 588.408 581.306 586.517 582.784 584.348
C 585.275 580.251 588.594 576.703 590.874 572.423
C 592.077 571.084 592.814 569.29 593.793 567.79
C 594.637 567.625 594.25 567.544 594.954 568.023
C 599.285 571.392 603.419 575.509 607.993 578.501
C 610.426 580.53 612.889 582.697 615.458 584.543
C 618.404 587.37 622.081 590.26 625.489 592.512
C 631.243 598.096 638.091 602.881 644.289 607.973
C 650.883 613.391 657.223 619.141 663.939 624.409
C 667.539 627.232 670.999 630.258 674.498 633.206
C 675.893 634.382 677.662 636.483 679.35 637.134
C 679.78 637.733 680.378 638.134 680.996 638.525
C 683.279 641.06 686.791 643.532 689.649 645.389
C 687.706 649.283 684.877 652.565 682.775 656.355
C 681.565 658.135 679.919 659.715 679.006 661.68
C 677.278 663.54 675.867 665.732 674.227 667.679
C 672.544 669.677 670.646 671.591 669.136 673.722
C 667.217 675.323 665.701 677.45 663.988 679.265
C 662.481 680.861 660.54 682.413 659.309 684.226
C 656.265 686.45 653.423 689.589 650.768 692.269
C 648.006 694.598 644.798 697.021 642.348 699.66
C 639.787 701.38 637.492 703.441 635.001 705.259
C 633.777 706.152 632.141 706.927 631.24 708.163
C 629.53 708.531 627.167 710.587 625.806 711.735
C 613.908 718.474 602.605 726.023 589.879 731.268
C 586.093 732.348 582.471 734.319 578.763 735.671
C 569.989 738.87 560.967 741.393 551.897 743.592
C 547.606 744.384 543.14 744.996 538.946 746.207
C 535.922 746.194 532.317 746.705 529.437 747.636
C 527.986 747.474 526.354 747.86 524.897 747.995
C 521.822 748.28 518.71 748.461 515.63 748.644
C 514.521 748.709 511.844 748.284 511.353 749.438
C 510.782 748.423 508.187 748.917 507.168 748.912
C 502.711 748.89 497.941 748.473 493.533 748.837
C 488.185 748.625 482.81 748.167 477.506 747.438
C 469.435 746.456 461.541 744.72 453.579 743.138
C 446.964 741.87 440.1 739.943 433.749 737.697
C 430.158 736.427 426.301 734.467 422.572 733.766
C 414.489 730.522 406.609 726.848 398.87 722.853
C 396.295 721.524 393.729 720.154 391.24 718.669
C 389.908 717.875 388.615 716.797 387.152 716.269
C 384.678 714.194 381.508 712.734 378.824 710.922
C 374.176 707.786 369.593 704.488 365.171 701.039
C 348.864 688.321 333.796 673.035 321.734 656.227
C 317.578 650.436 312.428 644.531 309.434 638.025
C 307.948 635.082 305.898 632.338 304.286 629.442
C 299.629 621.07 295.005 612.125 291.892 603.043
C 291.309 600.818 290.133 598.673 289.39 596.476
C 288.165 592.852 287.114 589.168 285.893 585.544
C 282.73 574.051 279.063 561.991 278.285 550.026
C 278.237 544.194 276.645 538.367 276.817 532.517
C 276.842 526.535 276.203 520.478 276.671 514.497
C 276.44 509.003 277.237 503.442 277.637 497.975 Z
M 308.638 531.87
C 308.212 533.753 308.535 535.641 308.694 537.53
C 309.026 541.466 309.435 545.331 310.138 549.222
C 312.317 561.271 314.824 572.945 318.848 584.549
C 319.203 586.167 320.057 587.677 320.673 589.207
C 321.812 592.042 322.814 594.939 324.109 597.713
C 324.748 599.084 325.156 601.033 326.22 602.127
C 326.608 603.716 327.595 605.204 328.333 606.654
C 329.851 609.635 331.382 612.597 332.934 615.558
C 334.136 617.764 335.46 620.029 336.883 622.099
C 341.655 630.491 347.795 638.352 354.037 645.685
C 363.346 656.619 373.663 666.667 385.05 675.43
C 389.576 678.913 394.177 682.246 398.959 685.374
C 400.903 686.646 402.788 688.175 404.928 689.107
C 406.173 690.263 408.033 691.179 409.532 691.975
C 412.978 694.301 417.535 696.621 421.431 698.074
C 423.669 699.59 426.538 700.539 429.048 701.528
C 433.065 703.111 437.05 704.759 441.08 706.308
C 445.179 707.344 449.193 708.909 453.273 710.058
C 460.529 712.1 468.078 713.647 475.525 714.8
C 481.827 715.726 488.14 716.601 494.512 716.817
C 500.004 716.754 506.05 717.896 511.476 716.897
C 517.179 716.589 523.415 716.881 528.974 715.403
C 532.334 715.172 535.626 714.322 538.946 713.812
C 546.752 712.562 554.51 710.335 561.98 707.783
C 565.512 706.576 569.738 705.782 572.928 703.803
C 578.571 702.427 584.206 698.841 589.389 696.286
C 592.669 694.91 596.531 692.923 599.37 690.771
C 601.929 689.45 604.268 687.66 606.74 686.18
C 612.187 683.137 616.878 678.869 621.835 675.137
C 629.285 669.528 636.799 663.031 642.884 655.927
C 644.64 654.42 646.476 652.295 647.86 650.438
C 647.004 648.728 644.478 647.351 643.016 646.189
C 639.633 643.501 636.209 640.853 632.849 638.138
C 625 631.797 617.083 625.492 609.384 618.971
C 605.739 615.883 602.197 612.491 598.433 609.568
C 597.42 610.021 596.34 611.86 595.547 612.728
C 593.485 614.988 591.165 617.862 588.602 619.545
C 578.367 628.884 566.809 636.162 554.374 642.224
C 552.797 642.447 551.213 643.431 549.746 644.034
C 546.155 645.512 542.255 646.944 538.48 647.867
C 525.112 651.643 510.919 653.535 497.01 652.583
C 489.94 652.1 483.029 650.977 476.044 649.806
C 470.347 648.199 464.675 646.751 459.038 644.905
C 449.255 641.88 439.615 636.562 431.15 630.865
C 428.175 628.862 425.483 626.436 422.527 624.448
C 420.703 623.42 419.305 621.65 417.64 620.386
C 415.997 618.404 413.755 617.027 411.967 615.189
C 409.401 612.551 407.176 609.485 404.495 606.974
C 403.196 605.328 402.004 603.461 400.566 601.943
C 393.155 591.022 386.343 580.084 381.926 567.541
C 380.697 561.823 378.174 556.405 377.156 550.571
C 376.015 544.217 375.217 537.914 374.482 531.502
C 374.324 525.986 374.195 520.522 374.349 515.002
C 375.084 513.379 374.64 510.885 374.869 509.103
C 375.414 504.867 376.148 500.671 376.757 496.445
C 378.162 490.599 380.095 484.822 381.421 478.981
C 381.985 478.055 382.731 476.208 382.842 475.132
C 377.486 470.562 372.29 465.524 366.558 461.422
C 366.44 461.374 366.322 461.326 366.205 461.277
C 363.356 457.981 358.982 455.248 355.556 452.557
C 353.884 451.243 352.109 449.16 350.162 448.321
C 348.827 446.499 346.068 444.516 344.144 443.333
C 341.575 440.466 337.681 437.674 334.534 435.449
C 333.249 434.546 332.17 433.434 330.955 432.448
C 330.528 432.101 329.801 431.35 329.224 431.399
C 327.642 434.985 325.07 438.601 324.107 442.401
C 322.468 444.664 321.602 448.183 320.65 450.808
C 319.491 454 317.586 457.515 317.208 460.908
C 315.611 464.833 314.674 469.12 313.681 473.232
C 311.594 481.871 310.059 490.687 309.168 499.53
C 308.715 504.019 307.386 509.496 308.249 513.967
C 307.326 518.257 308.114 523.155 308.192 527.51
C 308.206 528.279 307.828 531.576 308.638 531.87 Z"
opacity="1" fill="rgb(152,48,19)" fill-rule="evenodd" />
<path d="
M 351.379 352.475
C 355.558 348.897 359.599 344.654 364.279 341.723
C 365.938 340.541 367.996 339.347 369.387 337.872
C 373.429 335.7 377.166 332.589 381.072 330.143
C 388.401 325.553 396.066 321.509 403.839 317.73
C 408.131 315.843 412.385 313.902 416.718 312.099
C 418.809 311.229 421.631 310.694 423.461 309.389
C 427.5 308.338 431.503 306.684 435.443 305.301
C 436.955 304.964 439.169 304.787 440.446 303.875
C 446.322 302.718 452.026 300.789 457.951 299.779
C 464.302 298.933 470.563 297.28 476.984 296.802
C 482.489 296.328 487.946 295.771 493.479 295.732
C 499.611 295.852 505.866 295.722 512.007 295.714
C 517.883 295.724 523.631 296.574 529.471 296.997
C 532.346 297.994 536.434 298.239 539.477 298.411
C 544.463 299.439 549.53 300.167 554.453 301.486
C 558.88 302.094 563.409 303.632 567.658 304.988
C 575.384 307.453 582.882 310.246 590.47 313.077
C 593.496 314.894 597.105 315.998 600.291 317.532
C 602.576 318.632 605.019 320.403 607.44 321.102
C 608.986 322.393 611.238 323.497 613.056 324.378
C 617.421 326.571 621.329 329.496 625.502 331.998
C 627.647 333.954 630.594 335.449 632.967 337.161
C 638.098 340.864 643.064 344.871 647.895 348.956
C 659.684 358.926 670.287 370.38 679.657 382.629
C 686.785 391.947 693.124 401.85 698.955 412.023
C 700.771 415.191 702.383 418.481 704.033 421.738
C 704.706 423.066 705.167 425.078 706.226 426.123
C 706.894 429.591 709.28 433.137 710.535 436.462
C 713.696 444.832 716.865 453.315 718.953 462.019
C 720.678 467.425 722.244 473.457 723.153 479.052
C 723.467 484.592 724.611 490.558 725.563 496.038
C 725.944 502.713 726.822 509.296 726.9 516
C 727.029 527.09 726.095 537.94 725.346 548.974
C 724.952 554.848 723.289 560.626 722.843 566.473
C 722.191 572.734 719.934 578.778 718.878 584.968
C 718.417 587.256 717.693 589.701 716.872 591.874
C 716.474 591.508 716.073 591.174 715.642 590.846
C 713.602 588.608 710.763 585.93 708.161 584.368
C 706.737 582.587 704.608 581.39 702.855 579.964
C 699.898 577.558 697.025 575.035 694.157 572.528
C 693.033 571.546 689.625 569.658 689.848 568.043
C 690.961 565.014 691.327 561.592 691.853 558.419
C 692.345 555.455 693.063 552.452 693.3 549.457
C 693.744 543.793 694.817 538.176 695.172 532.491
C 695.242 526.334 695.183 520.141 695.329 513.992
C 695.141 508.143 694.517 502.328 693.877 496.523
C 693.468 490.369 691.982 484.071 690.701 478.05
C 689.188 472.744 687.701 467.395 686.259 462.07
C 683.713 453.455 679.93 445.046 676.038 436.975
C 674.263 433.295 672.52 428.726 669.998 425.512
C 668.213 421.238 664.951 416.59 662.135 412.917
C 661.389 411.558 660.503 410.158 659.466 409.002
C 656.134 403.122 650.882 397.799 646.502 392.671
C 631.216 374.776 611.607 358.993 590.53 348.432
C 578.716 343.239 567.182 337.43 554.56 334.283
C 549.762 332.955 544.113 330.737 539.111 330.69
C 536.469 329.613 533.324 329.387 530.522 328.936
C 526.084 328.316 521.669 327.757 517.206 327.346
C 515.515 327.191 513.023 326.578 511.417 327.21
C 510.19 326.63 508.549 326.815 507.213 326.763
C 504.044 326.642 500.833 326.648 497.665 326.789
C 496.367 326.846 494.611 326.552 493.454 327.187
C 492.401 326.538 490.33 327.09 489.135 327.145
C 485.051 327.332 481.04 327.974 476.973 328.3
C 470.544 329.01 464.301 330.59 457.969 331.852
C 449.523 333.999 441.271 336.523 433.138 339.658
C 429.892 340.909 425.551 341.999 422.811 344.176
C 421.638 344.287 420.322 345.272 419.273 345.807
C 416.935 346.998 414.618 348.224 412.294 349.441
C 405.418 353.043 398.828 356.975 392.599 361.612
C 390.295 363.326 387.17 365.118 385.329 367.317
C 384.342 367.706 381.85 366.032 380.887 365.605
C 377.169 363.952 373.364 362.289 369.553 360.868
C 364.621 359.195 359.821 356.896 354.932 355.073
C 353.707 354.617 349.945 353.961 351.379 352.475 Z"
opacity="1" fill="rgb(151,47,19)" fill-rule="evenodd" />
<path d="
M 427.427 496.489
C 430.091 490.167 432.981 484.387 436.27 478.376
C 437.152 477.099 438.128 475.798 438.893 474.453
C 443.046 469.82 446.979 465.248 451.396 460.859
C 453.834 458.911 456.211 456.968 458.806 455.24
C 465.078 450.88 472.013 447.268 479.38 445.141
C 480.866 444.693 482.546 444.412 483.96 443.799
C 486.974 443.258 489.931 442.616 492.966 442.204
C 499.198 441.795 505.239 441.807 511.474 441.866
C 517.048 442.79 522.59 443.498 527.999 445.23
C 531.852 446.464 535.389 448.207 539.073 449.826
C 542.848 451.581 546.44 453.792 549.837 456.193
C 551.472 457.348 553.005 459.44 554.891 460.125
C 556.213 462.144 558.706 463.667 560.378 465.428
C 563.773 469.003 566.898 472.836 569.628 476.941
C 572.369 481.065 574.805 485.404 576.732 489.97
C 577.721 492.314 578.277 495.551 579.691 497.616
C 580.139 500.138 581.101 502.568 581.599 505.089
C 582.182 508.042 582.368 511.097 583.052 514.024
C 582.952 519.858 583.166 525.635 582.838 531.489
C 582.481 537.599 580.65 543.643 578.93 549.475
C 577.539 554.842 574.418 560.344 571.405 564.952
C 564.453 575.586 556.053 585.492 544.979 592.024
C 542.71 593.362 540.436 594.959 537.951 595.868
C 529.308 599.882 520.642 601.561 511.418 603.539
C 505.484 604.057 499.451 603.821 493.533 603.294
C 485.777 602.065 478.224 600.325 471.022 597.114
C 466.651 595.165 462.722 592.656 458.567 590.343
C 456.582 588.61 454 586.462 451.683 585.218
C 449.713 583.202 447.542 581.384 445.56 579.376
C 444.168 577.964 443.058 576.251 441.617 574.903
C 439.78 572.262 437.885 569.578 435.982 566.993
C 426.729 551.294 421.483 533.427 423.433 515.04
C 424.109 508.668 425.757 502.643 427.427 496.489 Z
M 451.808 533.055
C 454.145 553.829 473.208 571.613 493.5 574.445
C 494.503 574.898 495.808 574.833 496.893 575.004
C 500.444 575.565 504.293 575.468 507.867 575.172
C 509.418 575.044 511.567 575.056 512.984 574.399
C 522.069 573.016 531.918 568.546 538.306 561.812
C 542.237 558.725 545.725 554.148 548.2 549.825
C 553.828 539.075 556.892 527.257 555.074 515.094
C 554.116 508.688 551.674 502.832 548.931 497.032
C 547.344 493.437 544.651 490.326 542.187 487.316
C 541.096 485.984 539.972 484.406 538.537 483.43
C 533.596 478.392 526.455 474.482 519.791 472.357
C 517.207 471.533 514.276 470.63 511.536 470.69
C 506.965 469.807 502.612 469.843 497.992 470.245
C 496.775 470.351 494.336 470.275 493.432 471.123
C 492.193 470.827 490.419 471.529 489.209 471.869
C 485.874 472.806 482.674 474.047 479.582 475.612
C 465.156 482.914 454.874 497.152 451.851 512.957
C 451.448 516.437 450.736 519.726 450.728 523.263
C 450.721 526.614 451.399 529.764 451.808 533.055 Z"
opacity="1" fill="rgb(152,48,19)" fill-rule="evenodd" />

</svg>